<svg xmlns="http://www.w3.org/2000/svg" viewBox="0 0 16 16" id="Rocket-Fill--Streamline-Mingcute-Fill" height="16" width="16">
  <desc>
    Rocket Fill Streamline Icon: https://streamlinehq.com
  </desc>
  <g fill="none" fill-rule="evenodd">
    <path d="M16 0v16H0V0h16ZM8.395333333333333 15.505333333333333l-0.007333333333333332 0.0013333333333333333 -0.047333333333333324 0.023333333333333334 -0.013333333333333332 0.0026666666666666666 -0.009333333333333332 -0.0026666666666666666 -0.047333333333333324 -0.023333333333333334c-0.006666666666666666 -0.0026666666666666666 -0.012666666666666666 -0.0006666666666666666 -0.016 0.003333333333333333l-0.0026666666666666666 0.006666666666666666 -0.011333333333333334 0.2853333333333333 0.003333333333333333 0.013333333333333332 0.006666666666666666 0.008666666666666666 0.06933333333333333 0.049333333333333326 0.009999999999999998 0.0026666666666666666 0.008 -0.0026666666666666666 0.06933333333333333 -0.049333333333333326 0.008 -0.010666666666666666 0.0026666666666666666 -0.011333333333333334 -0.011333333333333334 -0.2846666666666666c-0.0013333333333333333 -0.006666666666666666 -0.005999999999999999 -0.011333333333333334 -0.011333333333333334 -0.011999999999999999Zm0.17666666666666667 -0.07533333333333334 -0.008666666666666666 0.0013333333333333333 -0.12333333333333332 0.062 -0.006666666666666666 0.006666666666666666 -0.002 0.007333333333333332 0.011999999999999999 0.2866666666666666 0.003333333333333333 0.008 0.005333333333333333 0.004666666666666666 0.134 0.062c0.008 0.0026666666666666666 0.015333333333333332 0 0.019333333333333334 -0.005333333333333333l0.0026666666666666666 -0.009333333333333332 -0.02266666666666667 -0.4093333333333333c-0.002 -0.008 -0.006666666666666666 -0.013333333333333332 -0.013333333333333332 -0.014666666666666665Zm-0.4766666666666666 0.0013333333333333333a0.015333333333333332 0.015333333333333332 0 0 0 -0.018 0.004l-0.004 0.009333333333333332 -0.02266666666666667 0.4093333333333333c0 0.008 0.004666666666666666 0.013333333333333332 0.011333333333333334 0.016l0.009999999999999998 -0.0013333333333333333 0.134 -0.062 0.006666666666666666 -0.005333333333333333 0.0026666666666666666 -0.007333333333333332 0.011333333333333334 -0.2866666666666666 -0.002 -0.008 -0.006666666666666666 -0.006666666666666666 -0.12266666666666666 -0.06133333333333333Z" stroke-width="0.6667"></path>
    <path fill="#000000" d="m12.11 1.8433333333333333 0.16999999999999998 0.021333333333333333c0.44933333333333336 0.062 1.044 0.14533333333333331 1.3806666666666667 0.48266666666666663 0.27599999999999997 0.2753333333333333 0.38199999999999995 0.7233333333333333 0.44533333333333336 1.1233333333333333l0.03733333333333333 0.2573333333333333c0.08399999999999999 0.6066666666666667 0.106 1.401333333333333 -0.03733333333333333 2.284 -0.2826666666666666 1.742 -1.21 3.8206666666666664 -3.5386666666666664 5.43 -0.012666666666666666 0.12533333333333332 -0.013333333333333332 0.252 -0.010666666666666666 0.3786666666666666l0.006666666666666666 0.1893333333333333c0.010666666666666666 0.29133333333333333 0.021333333333333333 0.5826666666666667 -0.06 0.8653333333333333 -0.12666666666666665 0.44 -0.578 0.73 -1 0.938l-0.20666666666666667 0.09799999999999999 -0.26666666666666666 0.11733333333333332c-0.49866666666666665 0.212 -1.172 0.42933333333333334 -1.5939999999999999 0.006666666666666666 -0.2533333333333333 -0.25266666666666665 -0.35733333333333334 -0.6233333333333333 -0.442 -0.992l-0.03133333333333333 -0.13799999999999998a5.033333333333333 5.033333333333333 0 0 0 -0.13333333333333333 -0.516c-0.03333333333333333 -0.09733333333333333 -0.06933333333333333 -0.19666666666666666 -0.108 -0.29666666666666663a2.0026666666666664 2.0026666666666664 0 0 1 -0.13533333333333333 0.15c-0.22999999999999998 0.22999999999999998 -0.5733333333333333 0.3906666666666666 -0.856 0.5033333333333333 -0.30866666666666664 0.122 -0.6579999999999999 0.22866666666666668 -0.9813333333333333 0.31666666666666665l-0.16599999999999998 0.044 -0.31799999999999995 0.07933333333333333 -0.288 0.06666666666666667 -0.3446666666666667 0.07333333333333333 -0.21533333333333332 0.041999999999999996a0.6733333333333333 0.6733333333333333 0 0 1 -0.7846666666666666 -0.7846666666666666l0.057333333333333326 -0.28733333333333333 0.10266666666666666 -0.46533333333333327 0.08266666666666667 -0.33999999999999997 0.06266666666666666 -0.24c0.088 -0.32266666666666666 0.19466666666666665 -0.6719999999999999 0.3173333333333333 -0.98 0.112 -0.2833333333333333 0.2726666666666666 -0.6266666666666666 0.5026666666666666 -0.8566666666666666l0.05333333333333333 -0.05133333333333333 -0.042666666666666665 -0.017333333333333333a5.274666666666667 5.274666666666667 0 0 0 -0.346 -0.118l-0.18466666666666667 -0.05666666666666667c-0.4626666666666666 -0.13999999999999999 -0.9573333333333333 -0.29066666666666663 -1.2646666666666666 -0.5986666666666667 -0.37333333333333335 -0.3726666666666667 -0.24733333333333332 -0.94 -0.06733333333333333 -1.412l0.07333333333333333 -0.18266666666666667 0.118 -0.26666666666666666 0.09799999999999999 -0.20666666666666667c0.208 -0.42133333333333334 0.498 -0.8726666666666666 0.938 -0.9993333333333334 0.2333333333333333 -0.06666666666666667 0.476 -0.07066666666666666 0.72 -0.064l0.14666666666666667 0.004666666666666666c0.19066666666666665 0.006666666666666666 0.3806666666666666 0.014 0.5666666666666667 -0.004 1.6093333333333333 -2.3293333333333335 3.6879999999999997 -3.2566666666666664 5.43 -3.5393333333333334a7.866666666666667 7.866666666666667 0 0 1 2.114 -0.05866666666666666ZM5.568666666666666 10.293333333333333a0.6673333333333332 0.6673333333333332 0 0 0 -0.7333333333333334 -0.039999999999999994l-0.07333333333333333 0.049333333333333326 -0.062 0.05533333333333333 -0.08333333333333333 0.10533333333333333c-0.17333333333333334 0.25066666666666665 -0.27199999999999996 0.5973333333333333 -0.3486666666666667 0.9213333333333332l-0.072 0.312 -0.033999999999999996 0.142 0.12733333333333333 -0.030666666666666665 0.2786666666666666 -0.064c0.3853333333333333 -0.09 0.8126666666666666 -0.20666666666666667 1.0753333333333333 -0.44333333333333336a0.6666666666666666 0.6666666666666666 0 0 0 0.05866666666666666 -0.876l-0.05466666666666667 -0.06266666666666666 -0.016 -0.015333333333333332 -0.06266666666666666 -0.05333333333333333Zm4.788666666666666 -4.649333333333333a1.3333333333333333 1.3333333333333333 0 1 0 -1.8860000000000001 1.885333333333333 1.3333333333333333 1.3333333333333333 0 0 0 1.8860000000000001 -1.885333333333333Z" stroke-width="0.6667"></path>
  </g>
</svg>