<?xml version="1.0" ?>
<svg xmlns="http://www.w3.org/2000/svg" viewBox="198 284 648 424" role="img" aria-label="Loading">
  <style>
  .letter {
    transform-box: fill-box;
    transform-origin: center;
    animation: pulse 1.1s ease-in-out infinite;
  }
  .l { animation-delay: 0s; }
  .m { animation-delay: .18s; }
  .x { animation-delay: .36s; }

  @keyframes pulse {
    0%, 70%, 100% { opacity: .35; transform: translateY(0) scale(.985); }
    30%          { opacity: 1;   transform: translateY(-10px) scale(1.02); }
  }

  @media (prefers-reduced-motion: reduce){
    .letter { animation-duration: 2.8s; }
  }
</style>
  <g class="letter l">
    <path d="M0 0 C18.9013747 2.15166439 36.01496041 12.88205025 48.06640625 27.5078125 C56.58423568 39.2451239 60.25535827 50.05675478 60.41625977 64.46630859 C60.43583929 65.60174732 60.45541882 66.73718605 60.47559166 67.90703201 C60.53711544 71.69575642 60.5836481 75.48448603 60.62890625 79.2734375 C60.64752129 80.6126495 60.66651844 81.95185624 60.68588448 83.29105759 C61.01116319 105.9359083 61.0626133 128.57972357 61.02734375 151.2265625 C61.02612408 152.01060676 61.02490441 152.79465101 61.02364779 153.60245419 C61.00000422 168.08661293 60.96181034 182.57073954 60.91250378 197.05483282 C60.88488647 205.17468447 60.86318936 213.29450448 60.85249335 221.4143976 C60.84711707 225.21531356 60.83803575 229.01613059 60.81910515 232.81700516 C60.70028526 257.14508322 60.86979408 279.46484133 71 302 C71.36867188 302.84433594 71.73734375 303.68867187 72.1171875 304.55859375 C75.45484147 311.75181352 80.07715782 317.815789 85 324 C85.53882813 324.68320312 86.07765625 325.36640625 86.6328125 326.0703125 C89.85581523 329.9977967 93.46066601 333.27106866 97.36328125 336.51953125 C99 338 99 338 100 340 C37.03090589 342.48539967 37.03090589 342.48539967 19 326 C12.90085775 320.18925852 8.46813644 313.68507507 5 306 C5 305.34 5 304.68 5 304 C4.34 303.67 3.68 303.34 3 303 C2.40234375 301.06640625 2.40234375 301.06640625 1.9375 298.5625 C1.78152344 297.75941406 1.62554687 296.95632813 1.46484375 296.12890625 C0.22083761 287.75538591 -0.14323977 279.51291912 -0.12025452 271.05368042 C-0.12153615 269.30739607 -0.12153615 269.30739607 -0.12284368 267.52583325 C-0.12419803 264.32176604 -0.12110326 261.11774004 -0.11606562 257.91367769 C-0.11172371 254.44824513 -0.11321019 250.98281428 -0.1139679 247.51737976 C-0.11449077 241.52233303 -0.11136873 235.52729724 -0.10573006 229.53225327 C-0.09758293 220.86456019 -0.09499655 212.19687238 -0.09374207 203.52917589 C-0.09155659 189.46443458 -0.08491018 175.39969909 -0.07543945 161.33496094 C-0.06625229 147.67708363 -0.05917784 134.0192079 -0.05493164 120.36132812 C-0.05466892 119.51863561 -0.05440619 118.6759431 -0.05413551 117.80771445 C-0.05283042 113.57992864 -0.05156672 109.35214281 -0.05032361 105.12435699 C-0.03996669 70.08290051 -0.02236211 35.04145079 0 0 Z " fill="#083E86" transform="translate(240,325)"/>
    <path d="M0 0 C0.33 0 0.66 0 1 0 C1.21914062 1.01578125 1.43828125 2.0315625 1.6640625 3.078125 C3.70793323 12.10283732 6.46574908 19.86425836 11 28 C11.32742187 28.74765625 11.65484375 29.4953125 11.9921875 30.265625 C12.94763231 32.34997588 12.94763231 32.34997588 16 33 C16.70125 33.721875 17.4025 34.44375 18.125 35.1875 C29.71199417 47.01304993 44.31263292 49.48434672 60.15350342 49.76315308 C63.41493377 49.79525729 66.67593032 49.80453259 69.9375 49.8125 C72.18166445 49.83568921 74.42580744 49.86106357 76.66992188 49.88867188 C82.11329061 49.95095263 87.55630322 49.98634359 93 50 C93 49.34 93 48.68 93 48 C96.875 49.75 96.875 49.75 98 52 C35.03090589 54.48539967 35.03090589 54.48539967 17 38 C10.90085775 32.18925852 6.46813644 25.68507507 3 18 C3 17.34 3 16.68 3 16 C2.34 15.67 1.68 15.34 1 15 C-0.24024621 10.03901518 -0.10151176 5.07558808 0 0 Z " fill="#0C2F68" transform="translate(242,613)"/>
    <path d="M0 0 C5.06957796 0.51160879 8.84068285 2.25202846 13.125 4.875 C13.77662109 5.27211182 14.42824219 5.66922363 15.09960938 6.07836914 C28.76237153 14.68757549 40.8050869 27.29488018 45.62890625 43.0546875 C46.19726625 46.03409045 46.05812399 48.97755261 46 52 C45.67 52 45.34 52 45 52 C44.79246094 51.12859375 44.58492188 50.2571875 44.37109375 49.359375 C39.76559965 31.5540338 29.78676863 18.20289581 14.1875 8.4375 C9.54640588 5.7733768 4.84179551 3.278492 0 1 C0 0.67 0 0.34 0 0 Z " fill="#0C316C" transform="translate(253,329)"/>
    <path d="M0 0 C3.875 1.75 3.875 1.75 5 4 C0.46534937 4.16914327 -4.06950074 4.3295197 -8.60473633 4.48217773 C-10.14388126 4.53517393 -11.68294918 4.59046331 -13.22192383 4.64819336 C-23.39393994 5.02786939 -32.9369109 4.80619548 -43 3 C-43 2.67 -43 2.34 -43 2 C-28.81 2 -14.62 2 0 2 C0 1.34 0 0.68 0 0 Z " fill="#103777" transform="translate(335,661)"/>
    <path d="M0 0 C8.57142857 0.85714286 8.57142857 0.85714286 12 3 C9.00468461 3.99843846 7.82744268 4.00732761 4.8125 3.5625 C3.554375 3.376875 2.29625 3.19125 1 3 C0.67 2.01 0.34 1.02 0 0 Z " fill="#103671" transform="translate(240,325)"/>
  </g>
  <g class="letter m">
    <path d="M0 0 C1.02855103 0.26804443 1.02855103 0.26804443 2.07788086 0.54150391 C18.0951206 4.88952082 31.53547053 11.77116856 43 24 C46.72084234 22.4140672 49.31110503 20.05674433 52.3125 17.375 C69.01343787 3.08812332 89.21115342 -2.17659772 111 -1 C133.09964365 1.17425201 151.13101161 10.58980889 167 26 C167.75796875 26.68449219 168.5159375 27.36898438 169.296875 28.07421875 C187.14882076 44.72577506 196.38847108 70.09978644 198 94 C198.16708312 112.4905323 191.02677386 124.28093059 180.34765625 138.74609375 C177.40289969 142.7827408 174.61876436 146.92904938 171.8125 151.0625 C167.47159309 157.44848439 163.04721974 163.7592854 158.5 170 C151.09349574 180.16698708 143.977235 190.53414751 137 201 C136.01 200.67 135.02 200.34 134 200 C134.66 200 135.32 200 136 200 C135.83706388 199.27057788 135.67412777 198.54115576 135.5062542 197.78962994 C135.04131806 195.22767634 134.88387338 192.96181034 134.89993286 190.36592102 C134.90289368 189.46477066 134.90585449 188.5636203 134.90890503 187.63516235 C134.91721344 186.65896942 134.92552185 185.68277649 134.93408203 184.67700195 C134.94109131 183.11992271 134.94109131 183.11992271 134.94824219 181.53138733 C134.95873421 179.27952844 134.97139343 177.02767885 134.98596573 174.77584267 C135.00800957 171.20636968 135.02207591 167.63694998 135.03366089 164.06742859 C135.06722957 153.91898307 135.10876175 143.77062545 135.17138672 133.62231445 C135.20914184 127.41145743 135.23209138 121.20069135 135.24569321 114.98973656 C135.25372317 112.62834325 135.26729744 110.26696179 135.28662491 107.90563393 C135.31325371 104.59363362 135.32101084 101.28206521 135.32470703 97.9699707 C135.34324234 96.52086304 135.34324234 96.52086304 135.3621521 95.04248047 C135.33638328 86.238313 133.6775045 77.79651049 127.9921875 70.82421875 C121.80656967 65.1601334 113.41139395 61.63611274 105 62 C95.30635152 62.74665553 88.36794961 65.15837548 81.6875 72.3125 C74.10483338 81.89385863 74.83835257 94.21727876 74.90234375 105.86816406 C74.90380402 106.89240479 74.90526428 107.91664551 74.9067688 108.97192383 C74.9105466 111.17456808 74.91663276 113.37720939 74.92483521 115.57984161 C74.93769735 119.06916411 74.94413899 122.55844822 74.94897461 126.04779053 C74.96034979 133.44854437 74.97960503 140.84926624 75 148.25 C75.02363514 156.8442945 75.04400296 165.43857093 75.05593872 174.03289032 C75.06240372 177.46451762 75.07490772 180.89608885 75.08764648 184.32769775 C75.09127959 186.43493603 75.09463125 188.54217482 75.09765625 190.64941406 C75.10282257 191.59814392 75.10798889 192.54687378 75.11331177 193.52435303 C75.1143478 206.53982013 75.1143478 206.53982013 72.1875 210.375 C68.78752008 212.90069937 65.66744759 213.12474897 61.51025391 213.14526367 C60.62898834 213.15164352 59.74772278 213.15802338 58.8397522 213.16459656 C57.8948996 213.16570938 56.950047 213.1668222 55.9765625 213.16796875 C54.99763031 213.17129715 54.01869812 213.17462555 53.01010132 213.17805481 C50.94065826 213.18311369 48.87120705 213.18546346 46.80175781 213.18530273 C43.6437427 213.18748704 40.48607823 213.20564787 37.328125 213.22460938 C35.31510536 213.22754398 33.30208406 213.22952833 31.2890625 213.23046875 C29.87785629 213.24124702 29.87785629 213.24124702 28.43814087 213.25224304 C17.21333391 213.21333391 17.21333391 213.21333391 13 209 C12.01098704 206.07060199 11.87992481 203.37933905 11.89320374 200.30308533 C11.89547722 198.89248337 11.89547722 198.89248337 11.89779663 197.4533844 C11.904534 196.42841354 11.91127136 195.40344269 11.91821289 194.34741211 C11.92127945 193.26234375 11.92434601 192.17727539 11.92750549 191.05932617 C11.93466119 188.7015961 11.94405153 186.34387199 11.95540047 183.98615837 C11.97279062 180.24846374 11.983091 176.5108119 11.99131775 172.77308655 C12.0157643 162.14498595 12.0511583 151.5169483 12.09594727 140.88891602 C12.12282095 134.38743535 12.13980639 127.88598829 12.15081596 121.38446236 C12.15700307 118.91226527 12.16697976 116.44007453 12.18089485 113.96790886 C12.20024205 110.4980132 12.20702581 107.02829219 12.21118164 103.55834961 C12.22432404 102.04214775 12.22432404 102.04214775 12.23773193 100.49531555 C12.22366808 90.14138794 11.48536016 79.05827556 4.2421875 71.05859375 C-2.0737626 65.12655434 -9.23180621 62.01557406 -18 62 C-24.74780251 62.54338088 -29.92570083 64.00892409 -35.44140625 67.9765625 C-37 69 -37 69 -39 69 C-39.28875 69.58394531 -39.5775 70.16789063 -39.875 70.76953125 C-40.56218384 72.13196865 -41.26649707 73.48614896 -42 74.82421875 C-42.33 75.43910156 -42.66 76.05398438 -43 76.6875 C-43.33 77.28949219 -43.66 77.89148438 -44 78.51171875 C-46.64936421 85.10408205 -47.29214347 91.7653689 -47.21118164 98.80737305 C-47.20921028 100.05379326 -47.20921028 100.05379326 -47.2071991 101.32539368 C-47.2007487 104.0542879 -47.18029953 106.78289437 -47.16015625 109.51171875 C-47.15386598 111.44480587 -47.14863255 113.37789668 -47.14439392 115.31098938 C-47.13112215 120.40402162 -47.10675616 125.49693282 -47.07904053 130.58990479 C-46.82129799 178.85813897 -46.82129799 178.85813897 -47.37109375 197.76953125 C-47.40219742 199.00563644 -47.43330109 200.24174164 -47.46534729 201.51530457 C-47.50441696 202.6224733 -47.54348663 203.72964203 -47.58374023 204.87036133 C-47.61555893 205.82195633 -47.64737762 206.77355133 -47.68016052 207.75398254 C-48 210 -48 210 -50 212 C-62.08914678 212 -71.24097835 204.67331377 -80 197 C-81.01513672 196.12794922 -81.01513672 196.12794922 -82.05078125 195.23828125 C-100.83333599 177.88606134 -108.81954183 151.53847438 -110.1227417 126.65649414 C-110.29693834 121.6866247 -110.32849828 116.71938914 -110.31567383 111.74682617 C-110.3125154 109.19992096 -110.33608353 106.65418481 -110.36132812 104.10742188 C-110.47715895 74.11698015 -102.57733805 47.42881637 -81.625 25.25 C-65.17842512 9.75962133 -46.23234665 1.37554653 -23.8125 -0.875 C-22.61947266 -1.01679688 -21.42644531 -1.15859375 -20.19726562 -1.3046875 C-13.01683981 -2.06259941 -6.95591868 -1.94306205 0 0 Z " fill="#FE8414" transform="translate(426,453)"/>
    <path d="M0 0 C0.33 0 0.66 0 1 0 C1.13282743 9.52139923 1.26333136 19.04282704 1.39115143 28.56429482 C1.45061972 32.98916774 1.51078429 37.41402853 1.57275391 41.83886719 C1.81608062 59.2539424 2.04571646 76.66905817 2.09375 94.0859375 C2.1002356 95.30254059 2.10672119 96.51914368 2.11340332 97.77261353 C2.12132126 112.47820686 2.12132126 112.47820686 -0.75 116.375 C-5.67511309 119.93202612 -11.72268326 119.08629299 -17.53515625 118.94921875 C-18.4508287 118.9303511 -19.36650116 118.91148346 -20.30992126 118.89204407 C-22.24061438 118.85026994 -24.1712456 118.80554397 -26.10180664 118.75805664 C-29.05537939 118.68766969 -32.00896672 118.63341047 -34.96289062 118.58007812 C-36.84116841 118.53744164 -38.7194249 118.49385411 -40.59765625 118.44921875 C-41.48002457 118.43453049 -42.36239288 118.41984222 -43.27149963 118.40470886 C-44.09593063 118.38161148 -44.92036163 118.3585141 -45.76977539 118.3347168 C-46.49193741 118.31837692 -47.21409943 118.30203705 -47.95814514 118.28520203 C-50 118 -50 118 -54 116 C-37.17 116 -20.34 116 -3 116 C-2.0779745 113.23392349 -1.86784199 111.5618779 -1.84851074 108.7068634 C-1.83599525 107.39279007 -1.83599525 107.39279007 -1.82322693 106.0521698 C-1.81904251 105.09369644 -1.81485809 104.13522308 -1.81054688 103.14770508 C-1.80225357 102.13599243 -1.79396027 101.12427979 -1.78541565 100.08190918 C-1.76800372 97.88187545 -1.75284004 95.68182305 -1.73963928 93.48176003 C-1.71861383 89.99696143 -1.69158759 86.51225552 -1.66296387 83.0275116 C-1.6032326 75.62254348 -1.55113939 68.21753176 -1.5 60.8125 C-1.44070488 52.24872884 -1.37827405 43.68500274 -1.30812073 35.1213131 C-1.28162976 31.69366782 -1.26076011 28.26601786 -1.2401123 24.83833313 C-1.22349825 22.72530912 -1.20662545 20.61228712 -1.18945312 18.49926758 C-1.18526871 17.55091537 -1.18108429 16.60256317 -1.17677307 15.62547302 C-1.12715751 10.33220842 -0.76487994 5.23927935 0 0 Z " fill="#FE7604" transform="translate(499,547)"/>
    <path d="M0 0 C12.72111393 0.21201857 12.72111393 0.21201857 15.390625 2.66796875 C15.865 3.18359375 16.339375 3.69921875 16.828125 4.23046875 C19.42728038 5.42074859 19.42728038 5.42074859 21.828125 6.23046875 C21.828125 6.89046875 21.828125 7.55046875 21.828125 8.23046875 C22.42367187 8.4728125 23.01921875 8.71515625 23.6328125 8.96484375 C26.24980107 10.47357026 27.31428444 11.95785554 28.953125 14.48046875 C29.45070313 15.228125 29.94828125 15.97578125 30.4609375 16.74609375 C33.85213938 22.90839202 34.11257818 28.37369642 34.07104492 35.23974609 C34.07294327 36.23238968 34.07484161 37.22503326 34.07679749 38.24775696 C34.0804942 41.52072108 34.06981455 44.79346192 34.05859375 48.06640625 C34.05740095 50.34795099 34.056949 52.62949622 34.0572052 54.91104126 C34.0556421 59.6907255 34.04736702 64.47033465 34.03393555 69.25 C34.01696539 75.3652518 34.01312084 81.480421 34.01388073 87.59569359 C34.01360825 92.30724877 34.00811413 97.01878603 34.00087929 101.73033524 C33.99770519 103.98450205 33.99572816 106.23867089 33.99498558 108.49283981 C33.99280755 111.6493955 33.98403125 114.80586526 33.97338867 117.96240234 C33.97384186 118.88733994 33.97429504 119.81227753 33.97476196 120.76524353 C33.94902632 126.00884225 33.58680029 131.04059493 32.828125 136.23046875 C32.498125 136.23046875 32.168125 136.23046875 31.828125 136.23046875 C31.82573665 135.68308359 31.82334829 135.13569843 31.82088757 134.57172585 C31.76159718 121.21577139 31.68577229 107.85999743 31.59241009 94.50423622 C31.54775376 88.0453174 31.50848697 81.58646097 31.48168945 75.12744141 C31.45560956 68.88979687 31.41517345 62.65239304 31.36493874 56.41489792 C31.3483018 54.03960548 31.33676783 51.66427144 31.33051109 49.28892899 C31.32083571 45.95229328 31.2927343 42.61626899 31.26049805 39.27978516 C31.26193314 38.30585815 31.26336823 37.33193115 31.2648468 36.32849121 C31.14522513 27.52750717 29.52876516 19.0031745 23.80078125 12.05078125 C15.94252251 4.79939794 6.13617015 3.11488683 -4.171875 2.23046875 C-2.171875 0.23046875 -2.171875 0.23046875 0 0 Z " fill="#FE7907" transform="translate(530.171875,511.76953125)"/>
    <path d="M0 0 C0.33 0 0.66 0 1 0 C1.79037105 18.96689102 2.16272762 37.90000538 2.13037109 56.88354492 C2.12468042 60.25842152 2.12806126 63.63321899 2.13382339 67.00809288 C2.16059064 85.69390347 1.74686691 104.3302307 1 123 C0.34 123 -0.32 123 -1 123 C-1.02335694 107.55341364 -1.04099293 92.10682859 -1.05181217 76.66022873 C-1.05696918 69.48816081 -1.06400056 62.31610385 -1.07543945 55.14404297 C-1.08540445 48.89312045 -1.09185776 42.64220588 -1.09408849 36.39127564 C-1.09539251 33.08125078 -1.09898255 29.77125395 -1.10573006 26.46123505 C-1.11296334 22.76678608 -1.11398996 19.07238457 -1.11352539 15.37792969 C-1.11712067 14.27957291 -1.12071594 13.18121613 -1.12442017 12.04957581 C-1.1230455 11.04279282 -1.12167084 10.03600983 -1.12025452 8.99871826 C-1.12117631 8.12485851 -1.1220981 7.25099876 -1.12304783 6.35065842 C-1.00521025 4.09953461 -0.6299057 2.15847851 0 0 Z " fill="#FE7805" transform="translate(377,540)"/>
    <path d="M0 0 C0.66 0 1.32 0 2 0 C2.04629386 11.16117756 2.08185419 22.32233237 2.10362434 33.48358631 C2.11407171 38.66593117 2.1282483 43.84821046 2.15087891 49.03051758 C2.1725733 54.02959019 2.18456145 59.02859964 2.18975449 64.02771568 C2.19345637 65.93714073 2.200685 67.84656223 2.21146011 69.75596046 C2.22592979 72.42568114 2.22797984 75.09513915 2.22705078 77.76489258 C2.23783661 78.95495911 2.23783661 78.95495911 2.24884033 80.16906738 C2.23441687 83.98692567 2.1703966 85.7444051 0 89 C-1.73022128 87.26977872 -1.12600138 85.0448846 -1.13552856 82.73840332 C-1.13350433 81.98466431 -1.1314801 81.23092529 -1.12939453 80.4543457 C-1.13114685 79.66404465 -1.13289917 78.87374359 -1.13470459 78.05949402 C-1.1391263 75.43156779 -1.13618261 72.80370824 -1.1328125 70.17578125 C-1.13348578 68.35312385 -1.13445602 66.53046654 -1.13571167 64.70780945 C-1.13718935 60.87852121 -1.1350331 57.04925624 -1.13037109 53.2199707 C-1.1246939 48.31842587 -1.12793957 43.41693604 -1.13394356 38.51539326 C-1.13756452 34.74667449 -1.13640318 30.97796866 -1.13381577 27.2092495 C-1.1331497 25.40279318 -1.13396373 23.59633568 -1.13629532 21.78988075 C-1.13884475 19.25743144 -1.1349481 16.72506977 -1.12939453 14.19262695 C-1.13141876 13.44900909 -1.13344299 12.70539124 -1.13552856 11.9392395 C-1.11900134 7.85545118 -0.79221791 4.00682184 0 0 Z " fill="#FE7908" transform="translate(439,538)"/>
    <path d="M0 0 C0.33 0 0.66 0 1 0 C1.144375 1.134375 1.28875 2.26875 1.4375 3.4375 C1.61171478 6.80777201 1.61171478 6.80777201 3 8 C3.11934964 26.28436542 -3.99052713 38.29845569 -14.6484375 52.7421875 C-17.61103514 56.8037715 -20.42212338 60.96909893 -23.25 65.125 C-29.39790491 74.15668338 -35.67135117 83.09427975 -42 92 C-42.99 91.67 -43.98 91.34 -45 91 C-44.57847656 90.45730469 -44.15695312 89.91460938 -43.72265625 89.35546875 C-43.17480469 88.64003906 -42.62695312 87.92460938 -42.0625 87.1875 C-41.51722656 86.47980469 -40.97195313 85.77210938 -40.41015625 85.04296875 C-38.83143752 82.95874948 -38.83143752 82.95874948 -38 80 C-37.34 80 -36.68 80 -36 80 C-35.74605469 79.28328125 -35.49210938 78.5665625 -35.23046875 77.828125 C-33.90345153 74.77809176 -32.29670923 72.41640298 -30.3125 69.75 C-29.6009375 68.78835938 -28.889375 67.82671875 -28.15625 66.8359375 C-26.24251197 64.31895596 -24.28756631 61.84383289 -22.3125 59.375 C-19.51423209 55.82335227 -17.3578886 52.17567651 -15.24609375 48.1875 C-13.97448267 45.95520469 -12.56342312 43.97432605 -11 41.9375 C-9.0177406 39.35238851 -7.06729594 36.76706396 -5.25 34.0625 C-4.86328125 33.49660156 -4.4765625 32.93070313 -4.078125 32.34765625 C-0.83928015 25.29495424 -0.63010937 17.57483688 -0.375 9.9375 C-0.33632813 8.97650391 -0.29765625 8.01550781 -0.2578125 7.02539062 C-0.16461374 4.68377186 -0.07880815 2.34213963 0 0 Z " fill="#F77B0B" transform="translate(621,539)"/>
    <path d="M0 0 C0.33 0 0.66 0 1 0 C1.17290538 4.41644494 1.33801851 8.83314117 1.5 13.25 C1.52467346 13.91037262 1.54934692 14.57074524 1.57476807 15.25112915 C1.87561571 23.40484305 2.02072249 31.52786838 1.875 39.6875 C1.75640601 47.70494757 2.79143521 55.2290904 4.34375 63.08203125 C4.98040046 66.88298606 5.12014938 70.1702386 5 74 C3.23178728 71.34768092 2.62767391 70.08806468 1.96484375 67.12109375 C1.79533203 66.36376953 1.62582031 65.60644531 1.45117188 64.82617188 C1.28166016 64.03791016 1.11214844 63.24964844 0.9375 62.4375 C0.76412109 61.67630859 0.59074219 60.91511719 0.41210938 60.13085938 C-1.53424807 51.26411992 -2.1555791 42.44078336 -2.16796875 33.37890625 C-2.17296135 32.0790403 -2.17296135 32.0790403 -2.17805481 30.75291443 C-2.18307184 28.94213384 -2.18546477 27.13134417 -2.18530273 25.32055664 C-2.18751399 22.54493414 -2.20579123 19.76969437 -2.22460938 16.99414062 C-2.22753945 15.22656385 -2.22952683 13.4589852 -2.23046875 11.69140625 C-2.23765427 10.86330948 -2.24483978 10.03521271 -2.25224304 9.18202209 C-2.23657725 5.26980498 -2.21967561 3.32951342 0 0 Z " fill="#F47912" transform="translate(318,539)"/>
    <path d="M0 0 C0 0.66 0 1.32 0 2 C-0.7528125 2.18433594 -1.505625 2.36867188 -2.28125 2.55859375 C-16.26600276 6.3772459 -29.04758906 13.32541865 -39 24 C-39.33 24.66 -39.66 25.32 -40 26 C-43.98671063 24.63312778 -46.88494633 22.84804907 -50 20 C-50 19.34 -50 18.68 -50 18 C-50.66 18 -51.32 18 -52 18 C-52 17.34 -52 16.68 -52 16 C-52.52078125 15.74476563 -53.0415625 15.48953125 -53.578125 15.2265625 C-56.66517892 13.66311906 -59.70521658 12.01918305 -62.75 10.375 C-63.35199219 10.05015625 -63.95398438 9.7253125 -64.57421875 9.390625 C-66.04977297 8.59429415 -67.52492686 7.79722161 -69 7 C-69 6.34 -69 5.68 -69 5 C-63.83297517 5.48173765 -60.77240201 7.14319666 -56.5625 10.125 C-55.99700439 10.52517334 -55.43150879 10.92534668 -54.84887695 11.33764648 C-50.43146626 14.52972517 -46.6708708 17.98765285 -43 22 C-39.27915766 20.4140672 -36.68889497 18.05674433 -33.6875 15.375 C-29.14842177 11.46089321 -24.48105274 8.31044336 -19.1875 5.5 C-18.57801514 5.17435059 -17.96853027 4.84870117 -17.34057617 4.51318359 C-11.78282558 1.67052588 -6.29991427 -0.38181299 0 0 Z " fill="#FE7C08" transform="translate(512,455)"/>
    <path d="M0 0 C3.50921023 1.40664545 4.72143392 2.75923074 6.375 6.125 C8.83144073 10.81251993 11.69720037 14.87573482 15 19 C15.46148437 19.59683594 15.92296875 20.19367187 16.3984375 20.80859375 C24.43225419 30.77318959 35.93919263 37.97973088 48 42 C48 42.33 48 42.66 48 43 C39.83103522 44.0891953 33.79654469 39.72141699 27.3515625 35.1015625 C24.82983843 33.1384973 22.40359579 31.10566264 20 29 C19.32324219 28.41863281 18.64648438 27.83726562 17.94921875 27.23828125 C13.46333732 23.09401003 10.02598438 18.41338194 6.625 13.375 C6.19574219 12.74134521 5.76648438 12.10769043 5.32421875 11.45483398 C2.89941025 7.7483825 1.2061771 4.30777537 0 0 Z " fill="#F7790D" transform="translate(326,621)"/>
    <path d="M0 0 C-0.73605469 0.45890625 -1.47210938 0.9178125 -2.23046875 1.390625 C-3.20628906 2.00421875 -4.18210937 2.6178125 -5.1875 3.25 C-6.63189453 4.15492188 -6.63189453 4.15492188 -8.10546875 5.078125 C-11.04205091 6.95971895 -11.04205091 6.95971895 -13.73828125 9.234375 C-16 11 -16 11 -18 11 C-18 11.66 -18 12.32 -18 13 C-22.30232558 17.76744186 -22.30232558 17.76744186 -26 19 C-26.28875 19.598125 -26.5775 20.19625 -26.875 20.8125 C-28.35537318 23.69100341 -30.42278571 25.10099999 -33 27 C-31.50003543 17.19426147 -18.47397077 8.71477709 -11 3 C-4.67384328 -1.50086778 -4.67384328 -1.50086778 0 0 Z " fill="#FB7C0B" transform="translate(369,464)"/>
    <path d="M0 0 C0.99 0.33 1.98 0.66 3 1 C2.56429688 1.6084375 2.12859375 2.216875 1.6796875 2.84375 C-2.09795114 8.40391077 -4.98450874 13.90884426 -7.3125 20.1875 C-7.55436035 20.83976563 -7.7962207 21.49203125 -8.04541016 22.1640625 C-9.66965597 26.71515579 -10.88613204 31.2987451 -12 36 C-12.33 36 -12.66 36 -13 36 C-14.01344771 22.82517974 -7.11490928 10.67236392 0 0 Z " fill="#FA7B0B" transform="translate(333,492)"/>
    <path d="M0 0 C0 0.99 0 1.98 0 3 C-1.5390625 4.140625 -1.5390625 4.140625 -3.625 5.25 C-13.12818951 10.96532209 -15.79036617 18.76041597 -19 29 C-19.33 29 -19.66 29 -20 29 C-19.22095672 18.44191344 -19.22095672 18.44191344 -17 14 C-16.34 14 -15.68 14 -15 14 C-14.814375 13.29875 -14.62875 12.5975 -14.4375 11.875 C-11.47853724 5.95707448 -5.93687157 2.60643142 0 0 Z " fill="#FE7A07" transform="translate(519,514)"/>
    <path d="M0 0 C0 0.33 0 0.66 0 1 C-0.66644531 0.97679687 -1.33289063 0.95359375 -2.01953125 0.9296875 C-11.43887136 0.74525287 -19.58460066 1.58191535 -28 6 C-28.99 5.67 -29.98 5.34 -31 5 C-21.25718836 -1.95535872 -11.48492744 -3.75018039 0 0 Z " fill="#FE7C0A" transform="translate(419,514)"/>
    <path d="M0 0 C4.84590538 0.44053685 8.48141867 2.74505877 12 6 C12 6.66 12 7.32 12 8 C12.99 8.33 13.98 8.66 15 9 C17.1519437 12.22791555 17.20086443 13.28400809 17 17 C14.73663356 14.81162462 12.74721799 12.49369293 10.75 10.0625 C7.50108141 6.30095886 4.44472961 4.17701042 0 2 C0 1.34 0 0.68 0 0 Z " fill="#FE7B08" transform="translate(420,515)"/>
    <path d="M0 0 C1.03125 0.00322266 2.0625 0.00644531 3.125 0.00976562 C4.74535156 0.02233398 4.74535156 0.02233398 6.3984375 0.03515625 C8.03039062 0.04192383 8.03039062 0.04192383 9.6953125 0.04882812 C12.38807539 0.06063849 15.08072938 0.07710847 17.7734375 0.09765625 C17.7734375 0.42765625 17.7734375 0.75765625 17.7734375 1.09765625 C14.73215933 1.4349069 11.69049559 1.76757957 8.6484375 2.09765625 C7.7925 2.19304687 6.9365625 2.2884375 6.0546875 2.38671875 C1.60321276 2.86610834 -2.74098175 3.21531083 -7.2265625 3.09765625 C-7.2265625 2.43765625 -7.2265625 1.77765625 -7.2265625 1.09765625 C-4.66933021 -0.1809599 -2.85919148 -0.01570984 0 0 Z " fill="#FE7A05" transform="translate(399.2265625,452.90234375)"/>
    <path d="M0 0 C7.59762024 -0.38999191 13.84466021 0.39241413 21 3 C21 3.99 21 4.98 21 6 C18.24846929 5.38120598 15.49891102 4.75523814 12.75 4.125 C11.97269531 3.95097656 11.19539062 3.77695312 10.39453125 3.59765625 C9.26337891 3.33662109 9.26337891 3.33662109 8.109375 3.0703125 C7.41811523 2.91320801 6.72685547 2.75610352 6.01464844 2.59423828 C3.85262875 1.95653155 1.98395915 1.06200166 0 0 Z " fill="#FD7E06" transform="translate(539,454)"/>
    <path d="M0 0 C-2.94381488 1.67128932 -5.17383394 2.27731759 -8.546875 2.4140625 C-9.39121094 2.45273437 -10.23554687 2.49140625 -11.10546875 2.53125 C-11.97816406 2.5621875 -12.85085938 2.593125 -13.75 2.625 C-14.63816406 2.66367187 -15.52632812 2.70234375 -16.44140625 2.7421875 C-18.6273998 2.83620873 -20.81339062 2.92186143 -23 3 C-21 0 -21 0 -17.6875 -0.75 C-11.78525892 -1.3064035 -5.87803005 -0.58242676 0 0 Z " fill="#FE7C04" transform="translate(536,453)"/>
    <path d="M0 0 C0.33 0.99 0.66 1.98 1 3 C-0.40333195 5.35255857 -1.82161123 7.49093839 -3.4375 9.6875 C-3.87126953 10.29400391 -4.30503906 10.90050781 -4.75195312 11.52539062 C-5.82544245 13.02355704 -6.91155165 14.5126661 -8 16 C-8.7421875 14.35546875 -8.7421875 14.35546875 -9 12 C-7.3828125 9.23828125 -7.3828125 9.23828125 -5.125 6.3125 C-4.38507812 5.33925781 -3.64515625 4.36601563 -2.8828125 3.36328125 C-1 1 -1 1 0 0 Z " fill="#F57A0E" transform="translate(575,632)"/>
    <path d="M0 0 C1.19692469 3.59077406 0.73508446 4.24312273 -0.8125 7.5625 C-1.34810547 8.74005859 -1.34810547 8.74005859 -1.89453125 9.94140625 C-3 12 -3 12 -5 14 C-5.34858377 9.11982725 -4.48426393 6.20413897 -2 2 C-1.34 1.34 -0.68 0.68 0 0 Z " fill="#FE7A08" transform="translate(383,525)"/>
    <path d="M0 0 C0 0.66 0 1.32 0 2 C-4.26616316 3.13764351 -7.56486311 4 -12 4 C-12 3.34 -12 2.68 -12 2 C-10.37787941 1.47026689 -8.75218416 0.95146893 -7.125 0.4375 C-6.22007812 0.14746094 -5.31515625 -0.14257812 -4.3828125 -0.44140625 C-2 -1 -2 -1 0 0 Z " fill="#FC7B08" transform="translate(390,455)"/>
    <path d="M0 0 C0.66 0 1.32 0 2 0 C1.67 0.66 1.34 1.32 1 2 C0.67 1.34 0.34 0.68 0 0 Z " fill="#808080" transform="translate(633,525)"/>
    <path d="M0 0 C2 1 2 1 2 1 Z " fill="#FF8015" transform="translate(376,456)"/>
  </g>
  <g class="letter x">
    <path d="M0 0 C5.34871091 -0.02518408 10.69738547 -0.04308238 16.04614258 -0.05493164 C17.85637006 -0.05988416 19.66659373 -0.06664799 21.47680664 -0.07543945 C31.1432173 -0.12112446 40.78852072 -0.05851923 50.4453125 0.41015625 C51.21877518 0.4449559 51.99223785 0.47975555 52.78913879 0.51560974 C62.89691461 1.07127994 70.22929221 4.06493965 77.51953125 11.22924805 C80.01158927 14.01294554 81.86284344 16.75543567 83.7734375 19.9609375 C84.46777576 21.114973 85.16236405 22.2688581 85.85717773 23.42260742 C86.20988739 24.01294769 86.56259705 24.60328796 86.92599487 25.21151733 C88.67248234 28.11984848 90.46095628 31.00201379 92.24609375 33.88671875 C93.64322917 36.15364583 95.04036458 38.42057292 96.4375 40.6875 C96.97733521 41.56233032 96.97733521 41.56233032 97.52807617 42.45483398 C98.58069323 44.16081586 99.63216304 45.86750545 100.68359375 47.57421875 C101.29775146 48.57026123 101.91190918 49.56630371 102.54467773 50.5925293 C104 53 104 53 105 55 C105.66 55 106.32 55 107 55 C108.6926686 52.44712276 110.26547818 49.88996712 111.8125 47.25 C112.80111639 45.6002007 113.79209584 43.95181564 114.78515625 42.3046875 C115.3073877 41.43811523 115.82961914 40.57154297 116.36767578 39.67871094 C119.09594763 35.20150502 121.91035864 30.78218306 124.75 26.375 C125.26796143 25.5593457 125.78592285 24.74369141 126.31958008 23.90332031 C132.43038715 14.45855302 139.80790909 4.29572268 151.30204773 1.42506409 C154.30049682 0.95265654 157.13143906 0.88018931 160.16723633 0.88647461 C161.38812454 0.88655014 162.60901276 0.88662567 163.86689758 0.88670349 C165.17539169 0.89186478 166.4838858 0.89702606 167.83203125 0.90234375 C169.19251961 0.90421039 170.55300865 0.90563313 171.91349792 0.90663147 C175.48255287 0.91043725 179.05156669 0.92025086 182.62060547 0.93133545 C186.26724695 0.94159137 189.91389511 0.94613803 193.56054688 0.95117188 C200.70704801 0.96187497 207.85352131 0.97892796 215 1 C207.68457794 12.53807831 207.68457794 12.53807831 204.09765625 17.90234375 C203.43443359 18.89556641 202.77121094 19.88878906 202.08789062 20.91210938 C201.41951172 21.91048828 200.75113281 22.90886719 200.0625 23.9375 C199.39798828 24.93201172 198.73347656 25.92652344 198.04882812 26.95117188 C195.36216233 30.97204998 192.67451678 34.99226947 189.98461914 39.01098633 C184.64376653 47.00246027 179.39907213 55.05400535 174.16845703 63.11791992 C169.93828028 69.61594336 165.61497774 76.03816961 161.19140625 82.40625 C160.21491939 83.81913812 159.23860001 85.232142 158.26245117 86.64526367 C156.82689738 88.72282793 155.38661091 90.79607161 153.92910767 92.85830688 C152.57231416 94.77820034 151.23401939 96.70984754 149.8984375 98.64453125 C149.48787613 99.21429687 149.07731476 99.7840625 148.65431213 100.37109375 C146.96657975 102.8469698 145.93765899 104.36814609 146.2379303 107.41152954 C147.04295141 110.14589015 148.0723175 112.04813309 149.64868164 114.41625977 C150.20338638 115.2580629 150.75809113 116.09986603 151.3296051 116.96717834 C151.93368698 117.86617355 152.53776886 118.76516876 153.16015625 119.69140625 C153.78345322 120.63249741 154.40675018 121.57358856 155.04893494 122.54319763 C157.04599664 125.55466559 159.05405206 128.55861701 161.0625 131.5625 C162.38810006 133.55745766 163.7129777 135.55289555 165.03710938 137.54882812 C168.68207632 143.03879984 172.33976282 148.52020261 176 154 C177.34528408 156.01807454 178.69038581 158.03627066 180.03515625 160.0546875 C181.35675874 162.0364664 182.67837528 164.01823592 184 166 C186.27874183 169.41790475 188.55733062 172.83591153 190.8359375 176.25390625 C192.07682056 178.11523595 193.317706 179.97656406 194.55859375 181.83789062 C214 211 214 211 214 214 C205.97581286 214.0465942 197.95168343 214.0820055 189.92739391 214.10362434 C186.2003262 214.11400674 182.47335188 214.12806297 178.74633789 214.15087891 C175.14125479 214.17280719 171.53626082 214.18461017 167.9311161 214.18975449 C166.56418774 214.19341475 165.19726357 214.20056087 163.83037376 214.21146011 C140.10342111 214.39291552 140.10342111 214.39291552 131 206 C129.29760742 203.85302734 129.29760742 203.85302734 127.66796875 201.4609375 C126.76425537 200.13497559 126.76425537 200.13497559 125.84228516 198.78222656 C122.85340012 194.26840018 119.94490037 189.70738071 117.0625 185.125 C112.1426939 177.34523741 107.17287377 169.61472722 102 162 C97.58355612 168.44634373 93.55113888 175.05881265 89.625 181.8125 C74.30962006 207.83063802 74.30962006 207.83063802 64.44140625 212.109375 C59.64379137 213.35098248 55.00302842 213.48030149 50.0625 213.625 C48.94254639 213.66294678 47.82259277 213.70089355 46.66870117 213.73999023 C26.78956294 214.31122239 6.8848011 214.08120325 -13 214 C-13.33 213.34 -13.66 212.68 -14 212 C-13.34 212 -12.68 212 -12 212 C-11.73960937 211.26265625 -11.47921875 210.5253125 -11.2109375 209.765625 C-9.97120448 206.93423475 -8.62281488 205.09342842 -6.625 202.75 C-2.98868081 198.32232358 0.34942743 193.7576488 3.625 189.0625 C7.97932771 182.83201323 12.41426669 176.67152569 16.9375 170.5625 C21.51398869 164.37880329 26.06318984 158.17762279 30.5625 151.9375 C31.09407715 151.20039795 31.6256543 150.4632959 32.17333984 149.70385742 C34.32983293 146.71142039 36.48437867 143.71759353 38.63671875 140.72216797 C39.73282593 139.19679554 40.8295869 137.6718927 41.92700195 136.14746094 C43.008002 134.64545341 44.08729802 133.14221787 45.16479492 131.63769531 C47.88048896 127.86287644 50.64598624 124.14472634 53.51953125 120.48828125 C54.082771 119.76463379 54.64601074 119.04098633 55.22631836 118.29541016 C56.29881488 116.92417738 57.38371108 115.56252313 58.48266602 114.21240234 C61.22508154 110.73054773 61.22508154 110.73054773 62.09375 106.49609375 C60.59451957 103.07463574 58.63443464 100.01003736 56.625 96.875 C52.00450796 89.38078731 48.60797678 81.61552855 45.375 73.4375 C39.37743068 58.30897572 33.43366907 44.6702501 23 32 C22.47067871 31.35417969 21.94135742 30.70835937 21.39599609 30.04296875 C19.02263908 27.1512153 16.64453963 24.26355746 14.25488281 21.38525391 C9.00083397 15.0491519 3.95821636 8.56906546 -1 2 C-0.67 1.34 -0.34 0.68 0 0 Z " fill="#0FB8B0" transform="translate(590,452)"/>
    <path d="M0 0 C2.57571386 0.36401952 3.72554471 0.68360382 5.45703125 2.6796875 C5.90433594 3.40414063 6.35164062 4.12859375 6.8125 4.875 C7.32296875 5.6896875 7.8334375 6.504375 8.359375 7.34375 C8.90078125 8.2203125 9.4421875 9.096875 10 10 C10.87398437 11.31484375 10.87398437 11.31484375 11.765625 12.65625 C18.99703651 23.59769003 23.57738235 35.49124901 28.00390625 47.7890625 C31.68735476 57.43942575 37.20299883 66.04350796 42.62841797 74.78857422 C43.72212441 76.5519763 44.80276622 78.32347945 45.87890625 80.09765625 C49.84998779 86.53697895 54.28477781 92.62733577 58.73876953 98.73681641 C63.01225613 104.60236238 67.17615365 110.53717156 71.3125 116.5 C75.42927763 122.42553742 79.64176436 128.17157774 84.22265625 133.75 C90.00531178 141.07046063 94.73083812 149.16354323 99.5625 157.125 C100.95781299 159.41020154 102.35576903 161.69371936 103.75732422 163.97509766 C104.82400326 165.71321867 105.88342719 167.45578847 106.94140625 169.19921875 C107.49699219 170.06160156 108.05257812 170.92398438 108.625 171.8125 C109.07101562 172.52019531 109.51703125 173.22789062 109.9765625 173.95703125 C116.54125873 180.58509328 123.46887142 181.64360193 132.53981018 181.71894836 C134.01742687 181.71550632 135.49504238 181.71152158 136.97265625 181.70703125 C138.50680996 181.72016682 140.04094645 181.73547672 141.57505798 181.75285339 C145.58471913 181.7924998 149.59392578 181.80288054 153.60375977 181.80688477 C157.70668142 181.81625496 161.80934028 181.85369248 165.91210938 181.88867188 C173.9414114 181.95303994 181.97045204 181.98645008 190 182 C187.79309312 178.68871918 185.58601371 175.37755338 183.37890625 172.06640625 C182.76196899 171.14073853 182.14503174 170.2150708 181.50939941 169.26135254 C178.10784329 164.15845871 174.70306077 159.05776172 171.29150391 153.96154785 C166.08047228 146.17177906 160.95387902 138.33020599 155.85742188 130.46508789 C150.81196544 122.6881829 145.67649167 114.97343449 140.51904297 107.27050781 C137.84071272 103.26721767 135.17092391 99.25823354 132.5 95.25 C131.53128657 93.79685062 130.56253861 92.34372426 129.59375 90.890625 C127.39583333 87.59375 125.19791667 84.296875 123 81 C123.33 80.34 123.66 79.68 124 79 C131.24163723 88.62145489 137.79007329 98.67455229 144.375 108.75 C146.52767801 112.03709286 148.68172093 115.32329028 150.8359375 118.609375 C151.62923965 119.81989532 151.62923965 119.81989532 152.43856812 121.05487061 C158.86372349 130.85280606 165.37397964 140.59202671 171.92349243 150.30718994 C174.24008378 153.74558258 176.55181698 157.18722592 178.86279297 160.62939453 C180.05312207 162.39955144 181.24589374 164.16806795 182.44091797 165.93505859 C184.1884144 168.52014326 185.92707673 171.11097032 187.6640625 173.703125 C188.20141022 174.49366272 188.73875793 175.28420044 189.29238892 176.09869385 C189.78065155 176.83086121 190.26891418 177.56302856 190.77197266 178.31738281 C191.20369781 178.95830872 191.63542297 179.59923462 192.08023071 180.25958252 C193 182 193 182 193 185 C184.97581286 185.0465942 176.95168343 185.0820055 168.92739391 185.10362434 C165.2003262 185.11400674 161.47335188 185.12806297 157.74633789 185.15087891 C154.14125479 185.17280719 150.53626082 185.18461017 146.9311161 185.18975449 C145.56418774 185.19341475 144.19726357 185.20056087 142.83037376 185.21146011 C119.10342111 185.39291552 119.10342111 185.39291552 110 177 C108.29760742 174.85302734 108.29760742 174.85302734 106.66796875 172.4609375 C105.76425537 171.13497559 105.76425537 171.13497559 104.84228516 169.78222656 C101.85340012 165.26840018 98.94490037 160.70738071 96.0625 156.125 C91.1426939 148.34523741 86.17287377 140.61472722 81 133 C76.58355612 139.44634373 72.55113888 146.05881265 68.625 152.8125 C53.30962006 178.83063802 53.30962006 178.83063802 43.44140625 183.109375 C38.64379137 184.35098248 34.00302842 184.48030149 29.0625 184.625 C27.94254639 184.66294678 26.82259277 184.70089355 25.66870117 184.73999023 C5.78956294 185.31122239 -14.1151989 185.08120325 -34 185 C-34.33 184.34 -34.66 183.68 -35 183 C-34.34 183 -33.68 183 -33 183 C-32.73960937 182.26265625 -32.47921875 181.5253125 -32.2109375 180.765625 C-30.97120448 177.93423475 -29.62281488 176.09342842 -27.625 173.75 C-23.98868081 169.32232358 -20.65057257 164.7576488 -17.375 160.0625 C-13.02067229 153.83201323 -8.58573331 147.67152569 -4.0625 141.5625 C0.51398869 135.37880329 5.06318984 129.17762279 9.5625 122.9375 C10.09407715 122.20039795 10.6256543 121.4632959 11.17333984 120.70385742 C13.32983293 117.71142039 15.48437867 114.71759353 17.63671875 111.72216797 C18.73282593 110.19679554 19.8295869 108.6718927 20.92700195 107.14746094 C22.008002 105.64545341 23.08729802 104.14221787 24.16479492 102.63769531 C26.88048896 98.86287644 29.64598624 95.14472634 32.51953125 91.48828125 C33.082771 90.76463379 33.64601074 90.04098633 34.22631836 89.29541016 C35.29881488 87.92417738 36.38371108 86.56252313 37.48266602 85.21240234 C40.22508154 81.73054773 40.22508154 81.73054773 41.09375 77.49609375 C39.59451957 74.07463574 37.63443464 71.01003736 35.625 67.875 C31.00450796 60.38078731 27.60797678 52.61552855 24.375 44.4375 C18.34845565 29.23588787 12.24579899 15.81787716 2 3 C1.34 2.01 0.68 1.02 0 0 Z " fill="#0C8084" transform="translate(611,481)"/>
    <path d="M0 0 C4.73762364 4.29869918 8.01097768 9.23839116 11.48046875 14.5859375 C12.09336258 15.51991364 12.70625641 16.45388977 13.33772278 17.41616821 C15.2932941 20.39879368 17.24059837 23.38670993 19.1875 26.375 C20.47664981 28.34542102 21.76635825 30.31547668 23.05664062 32.28515625 C24.95429308 35.18244865 26.85157193 38.07997772 28.74694824 40.97875977 C35.39165344 51.13969665 42.13262182 61.23284364 48.91868591 71.29977417 C51.23674939 74.74072596 53.55017543 78.18478085 55.86279297 81.62939453 C57.05312207 83.39955144 58.24589374 85.16806795 59.44091797 86.93505859 C61.1884144 89.52014326 62.92707673 92.11097032 64.6640625 94.703125 C65.20141022 95.49366272 65.73875793 96.28420044 66.29238892 97.09869385 C66.78065155 97.83086121 67.26891418 98.56302856 67.77197266 99.31738281 C68.20369781 99.95830872 68.63542297 100.59923462 69.08023071 101.25958252 C70 103 70 103 70 106 C61.97581286 106.0465942 53.95168343 106.0820055 45.92739391 106.10362434 C42.2003262 106.11400674 38.47335188 106.12806297 34.74633789 106.15087891 C31.14125479 106.17280719 27.53626082 106.18461017 23.9311161 106.18975449 C22.56418774 106.19341475 21.19726357 106.20056087 19.83037376 106.21146011 C-3.89657889 106.39291552 -3.89657889 106.39291552 -13 98 C-14.70239258 95.85302734 -14.70239258 95.85302734 -16.33203125 93.4609375 C-17.23574463 92.13497559 -17.23574463 92.13497559 -18.15771484 90.78222656 C-21.14659172 86.2684125 -24.05564811 81.70771588 -26.9375 77.125 C-31.41090746 70.03505996 -35.93472696 63.0137688 -40.7421875 56.14453125 C-42 54 -42 54 -42 51 C-34.68803777 59.22595751 -29.12402786 68.74668981 -23.4375 78.125 C-22.04228303 80.41026099 -20.6442313 82.69371882 -19.24267578 84.97509766 C-18.17599674 86.71321867 -17.11657281 88.45578847 -16.05859375 90.19921875 C-15.50300781 91.06160156 -14.94742188 91.92398438 -14.375 92.8125 C-13.92898438 93.52019531 -13.48296875 94.22789062 -13.0234375 94.95703125 C-6.45874127 101.58509328 0.46887142 102.64360193 9.53981018 102.71894836 C11.01742687 102.71550632 12.49504238 102.71152158 13.97265625 102.70703125 C15.50680996 102.72016682 17.04094645 102.73547672 18.57505798 102.75285339 C22.58471913 102.7924998 26.59392578 102.80288054 30.60375977 102.80688477 C34.70668142 102.81625496 38.80934028 102.85369248 42.91210938 102.88867188 C50.9414114 102.95303994 58.97045204 102.98645008 67 103 C64.79309312 99.68871918 62.58601371 96.37755338 60.37890625 93.06640625 C59.76196899 92.14073853 59.14503174 91.2150708 58.50939941 90.26135254 C55.10784329 85.15845871 51.70306077 80.05776172 48.29150391 74.96154785 C43.08047228 67.17177906 37.95387902 59.33020599 32.85742188 51.46508789 C27.81196544 43.6881829 22.67649167 35.97343449 17.51904297 28.27050781 C14.84071272 24.26721767 12.17092391 20.25823354 9.5 16.25 C8.53128657 14.79685062 7.56253861 13.34372426 6.59375 11.890625 C6.15417969 11.22869141 5.71460938 10.56675781 5.26171875 9.88476562 C4.44062456 8.65820851 3.61032162 7.43774976 2.76953125 6.22460938 C0 2.20635965 0 2.20635965 0 0 Z " fill="#11A197" transform="translate(734,560)"/>
    <path d="M0 0 C5.34871091 -0.02518408 10.69738547 -0.04308238 16.04614258 -0.05493164 C17.85637006 -0.05988416 19.66659373 -0.06664799 21.47680664 -0.07543945 C31.1432173 -0.12112446 40.78852072 -0.05851923 50.4453125 0.41015625 C51.60550652 0.46235573 51.60550652 0.46235573 52.78913879 0.51560974 C62.89691461 1.07127994 70.22929221 4.06493965 77.51953125 11.22924805 C80.01158927 14.01294554 81.86284344 16.75543567 83.7734375 19.9609375 C84.46777576 21.114973 85.16236405 22.2688581 85.85717773 23.42260742 C86.20988739 24.01294769 86.56259705 24.60328796 86.92599487 25.21151733 C88.67248234 28.11984848 90.46095628 31.00201379 92.24609375 33.88671875 C93.64322917 36.15364583 95.04036458 38.42057292 96.4375 40.6875 C96.97733521 41.56233032 96.97733521 41.56233032 97.52807617 42.45483398 C98.58069323 44.16081586 99.63216304 45.86750545 100.68359375 47.57421875 C101.29775146 48.57026123 101.91190918 49.56630371 102.54467773 50.5925293 C104 53 104 53 105 55 C105.66 55 106.32 55 107 55 C108.6926686 52.44712276 110.26547818 49.88996712 111.8125 47.25 C112.80111639 45.6002007 113.79209584 43.95181564 114.78515625 42.3046875 C115.3073877 41.43811523 115.82961914 40.57154297 116.36767578 39.67871094 C119.09594763 35.20150502 121.91035864 30.78218306 124.75 26.375 C125.52694214 25.15151855 125.52694214 25.15151855 126.31958008 23.90332031 C132.43038715 14.45855302 139.80790909 4.29572268 151.30204773 1.42506409 C154.30049682 0.95265654 157.13143906 0.88018931 160.16723633 0.88647461 C161.38812454 0.88655014 162.60901276 0.88662567 163.86689758 0.88670349 C165.17539169 0.89186478 166.4838858 0.89702606 167.83203125 0.90234375 C169.19251961 0.90421039 170.55300865 0.90563313 171.91349792 0.90663147 C175.48255287 0.91043725 179.05156669 0.92025086 182.62060547 0.93133545 C186.26724695 0.94159137 189.91389511 0.94613803 193.56054688 0.95117188 C200.70704801 0.96187497 207.85352131 0.97892796 215 1 C214.01 1.99 213.02 2.98 212 4 C212 3.34 212 2.68 212 2 C211.34 2.33 210.68 2.66 210 3 C208.1992983 3.09926544 206.39497746 3.13556307 204.59155273 3.1418457 C203.45954941 3.14888016 202.32754608 3.15591461 201.16123962 3.16316223 C199.93111649 3.16732651 198.70099335 3.17149078 197.43359375 3.17578125 C194.83788261 3.19898985 192.24217947 3.2231076 189.64648438 3.24804688 C185.54744536 3.28434547 181.44855329 3.31414599 177.34936523 3.32592773 C173.397997 3.33802822 169.4472378 3.38170957 165.49609375 3.42578125 C164.28014023 3.42387283 163.06418671 3.42196442 161.81138611 3.41999817 C152.17123193 3.55775011 144.82120019 5.61876592 137.63525391 12.22363281 C134.50661187 15.62225918 132.11757756 19.461604 129.6875 23.375 C129.1298999 24.25260986 128.5722998 25.13021973 127.99780273 26.03442383 C126.31967093 28.68217487 124.65775253 31.33945297 123 34 C122.04967377 35.51704901 121.09916539 37.03398393 120.1484375 38.55078125 C118.48298181 41.21317115 116.82077346 43.87755904 115.16015625 46.54296875 C113.2897806 49.53934501 111.41548781 52.5321478 109.5 55.5 C109.0565625 56.1909375 108.613125 56.881875 108.15625 57.59375 C107.7746875 58.0578125 107.393125 58.521875 107 59 C106.34 59 105.68 59 105 59 C103.67480469 57.21508789 103.67480469 57.21508789 102.171875 54.72265625 C101.61886719 53.81580078 101.06585937 52.90894531 100.49609375 51.97460938 C99.91988281 51.01361328 99.34367188 50.05261719 98.75 49.0625 C97.62134683 47.19827632 96.49114921 45.33498679 95.359375 43.47265625 C94.80193604 42.55427979 94.24449707 41.63590332 93.67016602 40.68969727 C92.08629942 38.13897978 90.44324032 35.64336548 88.76171875 33.15625 C86.6357386 30.00585744 84.77062452 26.83817343 83.0625 23.4375 C78.46262277 14.91700203 73.12737225 8.656978 64 5 C55.81593536 3.05011427 47.61300568 2.6741328 39.234375 2.5859375 C38.07496399 2.56657135 36.91555298 2.5472052 35.7210083 2.5272522 C32.06407738 2.46808026 28.4071139 2.42132312 24.75 2.375 C22.25128932 2.33676269 19.75259101 2.29770774 17.25390625 2.2578125 C11.16938169 2.16243102 5.08478091 2.07720632 -1 2 C-0.67 1.34 -0.34 0.68 0 0 Z " fill="#10A094" transform="translate(590,452)"/>
    <path d="M0 0 C0.61523438 1.77880859 0.61523438 1.77880859 1 4 C-0.4019603 6.69105091 -1.830461 9.10967871 -3.5 11.625 C-3.96124268 12.3363208 -4.42248535 13.0476416 -4.89770508 13.78051758 C-5.8261421 15.2052411 -6.76071845 16.6259844 -7.70166016 18.04248047 C-8.81180279 19.71625325 -9.89858553 21.40547993 -10.98046875 23.09765625 C-15.70823028 30.27043861 -20.47870764 34.75452431 -29 37 C-32.64032168 37.40504932 -36.277648 37.51781002 -39.9375 37.625 C-41.05745361 37.66294678 -42.17740723 37.70089355 -43.33129883 37.73999023 C-63.21043706 38.31122239 -83.1151989 38.08120325 -103 38 C-103.33 37.34 -103.66 36.68 -104 36 C-103.34 36 -102.68 36 -102 36 C-101.67 35.01 -101.34 34.02 -101 33 C-100.34 33.66 -99.68 34.32 -99 35 C-95.97909354 35.28283941 -95.97909354 35.28283941 -92.38232422 35.19873047 C-91.702379 35.19569412 -91.02243378 35.19265778 -90.32188416 35.18952942 C-88.06592142 35.17621002 -85.81048146 35.14753417 -83.5546875 35.1171875 C-81.98487675 35.10116549 -80.41506259 35.08547392 -78.84524536 35.07009888 C-75.54806581 35.03505766 -72.25111188 34.99168469 -68.95410156 34.94335938 C-64.74447994 34.88292256 -60.53513364 34.84948311 -56.32517815 34.82330132 C-53.07858464 34.7989478 -49.83239867 34.75670825 -46.58606339 34.70956802 C-45.03531684 34.68979858 -43.48447714 34.67626065 -41.93362045 34.66924667 C-33.73495232 34.62451544 -27.08282567 34.51002768 -20 30 C-19.01 29.67 -18.02 29.34 -17 29 C-15.95389182 27.23597837 -15.95389182 27.23597837 -15 25 C-13.85547018 23.0384466 -12.69479826 21.08627508 -11.5234375 19.140625 C-10.853125 18.02558594 -10.1828125 16.91054688 -9.4921875 15.76171875 C-8.78649041 14.5911265 -8.08076083 13.42055383 -7.375 12.25 C-6.66132262 11.06388373 -5.9477795 9.87768667 -5.234375 8.69140625 C-3.49090297 5.793473 -1.74606278 2.89637275 0 0 Z " fill="#0B6C70" transform="translate(680,628)"/>
    <path d="M0 0 C4.06322716 2.93062028 6.48677369 5.8817691 9.125 10.125 C9.50188965 10.72538086 9.8787793 11.32576172 10.26708984 11.94433594 C12.95209042 16.24077326 15.57184979 20.57760044 18.20043945 24.90869141 C20.05100039 27.9501446 21.91742237 30.98169235 23.78662109 34.01171875 C24.82471096 35.7127658 25.83164048 37.43276227 26.83203125 39.15625 C31.14491759 46.12402745 36.48272718 48.96346615 44 52 C44 52.33 44 52.66 44 53 C37.47784456 52.72824352 33.76728389 50.38825141 29 46 C26.68589353 43.15669865 24.78076333 40.12765948 22.875 37 C22.33512451 36.14148438 21.79524902 35.28296875 21.23901367 34.3984375 C20.08736262 32.56609286 18.94159195 30.73004116 17.80126953 28.890625 C15.93173089 25.89044372 14.03117288 22.91201803 12.12109375 19.9375 C6.97422133 11.91531629 6.97422133 11.91531629 4.80078125 8.5 C4.30747314 7.7265625 3.81416504 6.953125 3.3059082 6.15625 C2.08847078 4.1460785 1.01642673 2.11768102 0 0 Z " fill="#10998E" transform="translate(691,611)"/>
    <path d="M0 0 C17.16 0 34.32 0 52 0 C52 0.33 52 0.66 52 1 C51.40309357 1.00808685 50.80618713 1.01617371 50.19119263 1.02450562 C43.9945903 1.11037197 37.79831452 1.20986693 31.60205078 1.31738281 C29.28765331 1.35573401 26.97319498 1.3905759 24.65869141 1.421875 C21.33734336 1.4673924 18.01641659 1.52540843 14.6953125 1.5859375 C13.65569366 1.59748871 12.61607483 1.60903992 11.54495239 1.62094116 C10.58410736 1.64081085 9.62326233 1.66068054 8.63330078 1.68115234 C7.36089035 1.70113785 7.36089035 1.70113785 6.06277466 1.7215271 C3.77813881 1.81776158 3.77813881 1.81776158 2 4 C1.34 2.68 0.68 1.36 0 0 Z " fill="#0EAEA1" transform="translate(590,454)"/>
    <path d="M0 0 C2.64752004 2.57784846 4.94432065 4.91648098 7 8 C7 8.99 7 9.98 7 11 C3.20839703 11.05786668 -0.58309311 11.09355054 -4.375 11.125 C-5.99535156 11.15013672 -5.99535156 11.15013672 -7.6484375 11.17578125 C-8.6796875 11.18222656 -9.7109375 11.18867187 -10.7734375 11.1953125 C-12.20308838 11.21102295 -12.20308838 11.21102295 -13.66162109 11.22705078 C-16 11 -16 11 -18 9 C-10.74 8.67 -3.48 8.34 4 8 C2.68 6.02 1.36 4.04 0 2 C0 1.34 0 0.68 0 0 Z " fill="#15978B" transform="translate(797,655)"/>
    <path d="M0 0 C1.32 0 2.64 0 4 0 C2.74615087 3.76154738 0.85799698 5.27191198 -2 8 C-2.86625 8.886875 -3.7325 9.77375 -4.625 10.6875 C-7 13 -7 13 -10 15 C-8.38048719 11.49383824 -6.34015489 8.40973037 -4.125 5.25 C-3.44695313 4.26515625 -2.76890625 3.2803125 -2.0703125 2.265625 C-1.04550781 1.14414062 -1.04550781 1.14414062 0 0 Z " fill="#1D7876" transform="translate(620,605)"/>
    <path d="M0 0 C4.42430292 3.13551841 6.9922773 6.54357411 9.8125 11.0625 C10.21919922 11.68705078 10.62589844 12.31160156 11.04492188 12.95507812 C14 17.60870536 14 17.60870536 14 21 C10.38239572 17.69697 7.90206619 14.04582329 5.3125 9.9375 C4.90966797 9.31294922 4.50683594 8.68839844 4.09179688 8.04492188 C2.39761157 5.38587391 1.00102324 3.00306973 0 0 Z " fill="#11A097" transform="translate(691,611)"/>
    <path d="M0 0 C0.66 0.66 1.32 1.32 2 2 C4.66949409 2.24315656 4.66949409 2.24315656 7.625 2.125 C8.62789062 2.10695313 9.63078125 2.08890625 10.6640625 2.0703125 C11.82035156 2.03550781 11.82035156 2.03550781 13 2 C13 2.33 13 2.66 13 3 C7.77487721 4.46670113 3.4185766 5.22577402 -2 5 C-2.33 4.34 -2.66 3.68 -3 3 C-2.34 3 -1.68 3 -1 3 C-0.67 2.01 -0.34 1.02 0 0 Z " fill="#1A7172" transform="translate(579,661)"/>
    <path d="M0 0 C0.8125 1.6875 0.8125 1.6875 1 4 C-1.1613627 6.51185394 -3.01962439 8.50981219 -6 10 C-4.34832443 6.4213696 -2.21713508 3.25179812 0 0 Z " fill="#06868D" transform="translate(647,570)"/>
    <path d="M0 0 C3.3 0 6.6 0 10 0 C10 0.33 10 0.66 10 1 C9.05125 1.12375 8.1025 1.2475 7.125 1.375 C3.91332809 1.71687177 3.91332809 1.71687177 2 4 C1.34 2.68 0.68 1.36 0 0 Z " fill="#1FB0A0" transform="translate(590,454)"/>
  </g>
</svg>
